<?xml version="1.0" standalone="no"?>
<!DOCTYPE svg PUBLIC "-//W3C//DTD SVG 20010904//EN"
 "http://www.w3.org/TR/2001/REC-SVG-20010904/DTD/svg10.dtd">
<svg version="1.0" xmlns="http://www.w3.org/2000/svg"
 width="236.000000pt" height="236.000000pt" viewBox="0 0 236.000000 236.000000"
 preserveAspectRatio="xMidYMid meet">
<metadata>
Created by potrace 1.10, written by Peter Selinger 2001-2011
</metadata>
<g transform="translate(0.000000,236.000000) scale(0.100000,-0.100000)"
fill="#000000" stroke="none">
<path d="M952 2043 c-41 -20 -68 -57 -77 -106 -6 -33 -11 -38 -49 -47 -276
-70 -462 -229 -541 -465 -68 -201 -54 -440 31 -552 14 -19 47 -50 72 -68 45
-33 149 -78 178 -78 17 0 19 6 -12 -63 -38 -86 -64 -198 -64 -274 0 -51 -6
-81 -26 -123 -23 -52 -24 -58 -10 -85 18 -35 74 -64 137 -70 43 -4 48 -2 100
47 l54 52 210 4 c116 2 229 8 253 13 38 8 42 8 42 -10 0 -53 42 -77 131 -73
63 3 95 19 103 51 11 41 -11 155 -33 178 -18 19 -21 35 -21 117 0 52 -6 120
-14 152 l-13 57 26 6 c140 30 221 73 265 141 42 65 46 103 36 303 -10 201 -24
268 -81 389 -21 44 -32 83 -33 118 -1 43 -7 58 -30 82 -32 33 -82 54 -118 50
-13 -2 -45 10 -73 26 -27 16 -83 41 -124 56 -65 23 -76 30 -86 58 -35 105
-144 158 -233 114z m136 -33 c51 -32 90 -112 106 -218 l4 -33 -43 40 c-57 52
-109 78 -189 93 -62 12 -66 14 -66 40 0 16 13 40 34 62 28 31 40 36 77 36 26
0 57 -8 77 -20z m-62 -161 c28 -11 77 -40 110 -65 54 -42 59 -44 71 -28 16 21
16 29 3 73 l-9 33 32 -6 c18 -3 66 -22 107 -42 75 -36 75 -36 49 -49 -34 -18
-53 -65 -45 -108 15 -80 120 -121 213 -82 19 8 36 15 38 15 8 0 72 -156 87
-214 24 -88 36 -389 18 -456 -15 -55 -78 -122 -140 -149 -93 -40 -310 -69
-310 -42 0 5 -3 16 -6 25 -5 13 2 16 37 16 64 0 164 26 215 56 63 37 102 89
126 168 17 57 20 84 15 165 -3 53 -13 119 -21 148 -20 62 -80 145 -132 181
-96 65 -289 101 -447 83 -303 -35 -445 -137 -491 -352 -18 -84 -13 -195 12
-251 54 -123 214 -199 423 -202 l85 -1 -10 -27 c-10 -26 -14 -28 -66 -28 -117
0 -348 21 -405 37 -181 50 -276 135 -304 271 -18 87 -14 248 9 338 32 127 83
217 175 310 66 66 97 89 175 127 173 85 269 99 386 56z m514 -104 c36 -19 50
-43 50 -89 0 -29 -5 -38 -30 -51 -16 -8 -54 -15 -85 -15 -48 0 -60 4 -80 26
-18 19 -25 38 -25 66 0 33 5 41 33 58 38 24 97 26 137 5z m-258 -210 c43 -8
93 -21 113 -29 100 -42 168 -119 199 -225 22 -74 21 -232 -1 -296 -24 -71 -91
-134 -173 -163 -92 -31 -181 -39 -211 -18 -30 21 -78 21 -108 0 -48 -34 -266
-11 -375 39 -112 52 -166 135 -166 257 0 173 73 311 197 373 45 23 181 61 248
70 72 10 206 6 277 -8z m-73 -771 c12 -15 21 -36 21 -46 0 -17 -5 -19 -32 -15
-18 3 -54 9 -80 13 l-47 6 14 28 c17 32 27 38 72 39 23 1 37 -6 52 -25z m-339
-72 c107 -4 196 -5 198 -1 1 3 22 3 45 -2 23 -4 59 -8 80 -9 25 0 37 -5 37
-14 0 -32 -21 -67 -52 -87 -28 -17 -43 -19 -95 -14 -36 3 -63 2 -63 -4 0 -12
25 -21 63 -21 21 0 40 -9 55 -25 26 -27 109 -48 169 -43 52 5 48 23 -5 23
l-42 0 0 78 0 77 45 0 c35 0 45 4 45 16 0 14 -8 16 -50 11 -58 -7 -68 7 -12
17 85 14 89 12 103 -51 6 -32 12 -103 13 -159 2 -87 5 -103 23 -123 24 -26 36
-71 22 -86 -12 -12 -179 -23 -486 -31 -227 -6 -232 -7 -254 -30 -12 -13 -28
-24 -35 -24 -25 0 -108 32 -147 57 -30 19 -36 27 -27 38 6 7 13 55 14 107 4
95 32 201 76 288 19 37 21 38 52 30 18 -5 121 -13 228 -18z m366 -190 c-3 -2
-27 3 -53 13 l-47 18 40 18 c23 9 45 25 50 35 6 14 9 7 12 -30 2 -26 1 -51 -2
-54z m-666 -306 c30 -14 63 -26 74 -26 15 0 16 -3 6 -15 -25 -30 -136 -12
-169 28 -8 11 -11 27 -7 43 6 24 8 25 24 11 9 -9 42 -27 72 -41z m890 32 c0
-41 -15 -51 -79 -56 -67 -5 -111 14 -111 47 0 15 7 17 53 13 28 -2 68 1 87 6
50 14 50 14 50 -10z"/>
<path d="M1044 1996 c1 -8 5 -18 8 -22 4 -3 5 1 4 10 -1 8 -5 18 -8 22 -4 3
-5 -1 -4 -10z"/>
<path d="M986 1981 c-4 -5 3 -7 14 -4 23 6 26 13 6 13 -8 0 -17 -4 -20 -9z"/>
<path d="M1095 1870 c-3 -6 1 -7 9 -4 18 7 21 14 7 14 -6 0 -13 -4 -16 -10z"/>
<path d="M926 1791 c-3 -5 2 -15 12 -22 15 -12 16 -12 5 2 -7 9 -10 19 -6 22
3 4 4 7 0 7 -3 0 -8 -4 -11 -9z"/>
<path d="M706 1775 c-59 -21 -88 -55 -90 -105 -1 -34 4 -46 27 -66 33 -28 86
-44 150 -44 92 0 152 43 152 110 0 90 -126 145 -239 105z m164 -33 c62 -31 66
-112 6 -141 -36 -17 -146 -15 -191 3 -62 26 -59 103 5 137 44 24 132 24 180 1z"/>
<path d="M696 1673 c-6 -14 -5 -15 5 -6 7 7 10 15 7 18 -3 3 -9 -2 -12 -12z"/>
<path d="M886 1673 c-6 -14 -5 -15 5 -6 7 7 10 15 7 18 -3 3 -9 -2 -12 -12z"/>
<path d="M671 1664 c0 -11 3 -14 6 -6 3 7 2 16 -1 19 -3 4 -6 -2 -5 -13z"/>
<path d="M825 1630 c-3 -6 1 -7 9 -4 18 7 21 14 7 14 -6 0 -13 -4 -16 -10z"/>
<path d="M1616 893 c-6 -14 -5 -15 5 -6 7 7 10 15 7 18 -3 3 -9 -2 -12 -12z"/>
<path d="M1525 1665 c0 -13 3 -21 8 -18 4 2 7 10 7 18 0 8 -3 16 -7 18 -5 3
-8 -5 -8 -18z"/>
<path d="M1556 1675 c-9 -26 -7 -32 5 -12 6 10 9 21 6 23 -2 3 -7 -2 -11 -11z"/>
<path d="M1083 1523 c15 -2 39 -2 55 0 15 2 2 4 -28 4 -30 0 -43 -2 -27 -4z"/>
<path d="M1208 1523 c6 -2 18 -2 25 0 6 3 1 5 -13 5 -14 0 -19 -2 -12 -5z"/>
<path d="M1288 1513 c7 -3 16 -2 19 1 4 3 -2 6 -13 5 -11 0 -14 -3 -6 -6z"/>
<path d="M908 1503 c7 -3 16 -2 19 1 4 3 -2 6 -13 5 -11 0 -14 -3 -6 -6z"/>
<path d="M1340 1496 c29 -17 40 -20 40 -8 0 5 -6 9 -12 9 -7 0 -22 4 -33 7
-13 5 -12 2 5 -8z"/>
<path d="M765 1455 c-22 -13 -45 -32 -52 -41 -7 -10 -13 -14 -13 -10 0 11 -22
-13 -58 -63 -18 -24 -32 -49 -32 -55 0 -6 10 5 23 24 30 47 83 98 142 137 57
38 50 43 -10 8z"/>
<path d="M1421 1461 c13 -11 26 -17 29 -14 6 6 -30 33 -43 33 -5 0 1 -9 14
-19z"/>
<path d="M1463 1444 c4 -4 0 -15 -8 -24 -13 -14 -13 -17 -1 -17 8 0 14 5 13
11 -1 6 4 10 11 9 18 -4 14 14 -5 21 -10 4 -14 4 -10 0z"/>
<path d="M926 1303 c-6 -14 -5 -15 5 -6 7 7 10 15 7 18 -3 3 -9 -2 -12 -12z"/>
<path d="M887 1289 c4 -13 8 -18 11 -10 2 7 -1 18 -6 23 -8 8 -9 4 -5 -13z"/>
<path d="M1295 1300 c-3 -5 -1 -10 4 -10 6 0 11 5 11 10 0 6 -2 10 -4 10 -3 0
-8 -4 -11 -10z"/>
<path d="M1380 1301 c0 -6 4 -13 10 -16 6 -3 7 1 4 9 -7 18 -14 21 -14 7z"/>
<path d="M940 1277 c0 -8 8 -17 18 -20 9 -2 25 -8 35 -12 12 -5 17 -3 17 8 0
8 -8 17 -17 20 -10 2 -26 8 -35 12 -13 5 -18 3 -18 -8z"/>
<path d="M1015 1280 c3 -5 8 -10 11 -10 2 0 4 5 4 10 0 6 -5 10 -11 10 -5 0
-7 -4 -4 -10z"/>
<path d="M1326 1274 c-18 -10 -25 -19 -19 -25 13 -13 63 9 63 28 0 17 -8 16
-44 -3z"/>
<path d="M911 1259 c0 -9 5 -22 12 -28 10 -8 14 -7 14 4 0 8 -4 12 -8 9 -4 -2
-10 4 -12 13 -4 15 -5 15 -6 2z"/>
<path d="M595 1239 c-4 -6 -5 -12 -2 -15 2 -3 7 2 10 11 7 17 1 20 -8 4z"/>
<path d="M1515 1239 c-4 -6 -14 -8 -24 -4 -13 5 -14 4 -3 -6 10 -11 15 -10 29
4 10 9 14 17 11 17 -4 0 -10 -5 -13 -11z"/>
<path d="M621 1194 c0 -11 3 -14 6 -6 3 7 2 16 -1 19 -3 4 -6 -2 -5 -13z"/>
<path d="M806 1197 c3 -10 9 -15 12 -12 3 3 0 11 -7 18 -10 9 -11 8 -5 -6z"/>
<path d="M872 1200 c-33 -14 -45 -54 -27 -90 18 -34 43 -44 79 -30 23 9 46 44
46 71 0 15 -47 59 -62 58 -7 0 -23 -4 -36 -9z m64 -35 c17 -26 16 -40 -1 -27
-6 4 -16 17 -23 30 -17 31 3 28 24 -3z m-38 6 c8 -5 15 -20 15 -33 2 -18 6
-24 17 -20 12 5 13 3 3 -9 -26 -32 -91 -3 -72 32 5 10 7 19 4 19 -4 0 -3 5 0
10 7 12 16 12 33 1z"/>
<path d="M873 1164 c3 -4 2 -16 -4 -28 -10 -20 -10 -20 5 -2 19 24 20 36 4 36
-6 0 -8 -3 -5 -6z"/>
<path d="M886 1125 c-9 -26 -7 -32 5 -12 6 10 9 21 6 23 -2 3 -7 -2 -11 -11z"/>
<path d="M1397 1199 c-68 -40 -15 -147 58 -119 48 18 58 68 20 105 -26 27 -49
31 -78 14z m65 -26 c24 -22 23 -49 -4 -67 -26 -18 -44 -7 -34 21 7 17 8 17 20
1 7 -10 16 -15 19 -11 11 11 8 25 -4 17 -7 -4 -9 0 -5 14 4 11 2 23 -3 27 -6
3 -8 0 -5 -8 3 -8 -2 -14 -11 -14 -8 0 -15 5 -15 11 0 6 -7 3 -16 -6 -13 -13
-14 -20 -4 -39 12 -23 12 -23 -6 -7 -15 15 -16 21 -6 44 8 17 18 24 27 20 8
-3 15 -1 15 4 0 15 11 12 32 -7z m-42 -33 c0 -5 -4 -10 -10 -10 -5 0 -10 5
-10 10 0 6 5 10 10 10 6 0 10 -4 10 -10z"/>
<path d="M1496 1198 c3 -5 10 -6 15 -3 13 9 11 12 -6 12 -8 0 -12 -4 -9 -9z"/>
<path d="M1002 1140 c0 -14 2 -19 5 -12 2 6 2 18 0 25 -3 6 -5 1 -5 -13z"/>
<path d="M1123 1145 c0 -8 4 -12 9 -9 5 3 6 10 3 15 -9 13 -12 11 -12 -6z"/>
<path d="M1262 1146 c7 -8 15 -12 17 -11 5 6 -10 25 -20 25 -5 0 -4 -6 3 -14z"/>
<path d="M1145 1120 c-21 -23 -13 -39 10 -20 12 10 18 10 30 0 23 -19 31 -3
10 20 -10 11 -21 20 -25 20 -4 0 -15 -9 -25 -20z"/>
<path d="M1250 1122 c6 -13 14 -21 18 -18 3 4 -2 14 -12 24 -18 16 -18 16 -6
-6z"/>
<path d="M630 1065 c0 -9 6 -12 15 -9 8 4 15 7 15 9 0 2 -7 5 -15 9 -9 3 -15
0 -15 -9z"/>
<path d="M705 1071 c22 -4 46 -10 53 -14 6 -5 12 -4 12 1 0 14 -27 22 -68 21
l-37 -2 40 -6z"/>
<path d="M1531 1045 c-13 -19 -31 -35 -40 -35 -13 0 -13 -2 -2 -9 8 -5 11 -16
8 -26 -4 -9 -3 -14 3 -10 6 3 10 14 10 24 0 10 15 35 34 55 19 20 29 36 23 36
-7 0 -23 -16 -36 -35z"/>
<path d="M606 1061 c-4 -7 -5 -15 -2 -18 9 -9 19 4 14 18 -4 11 -6 11 -12 0z"/>
<path d="M791 1045 c0 -5 13 -23 29 -39 17 -16 30 -25 30 -20 -1 14 -26 44
-38 44 -6 0 -13 6 -15 13 -3 6 -6 8 -6 2z"/>
<path d="M1428 1043 c6 -2 18 -2 25 0 6 3 1 5 -13 5 -14 0 -19 -2 -12 -5z"/>
<path d="M928 1013 c6 -2 18 -2 25 0 6 3 1 5 -13 5 -14 0 -19 -2 -12 -5z"/>
<path d="M615 1001 c-3 -5 -2 -12 3 -15 5 -3 9 1 9 9 0 17 -3 19 -12 6z"/>
<path d="M1530 961 c0 -5 5 -13 10 -16 6 -3 10 -2 10 4 0 5 -4 13 -10 16 -5 3
-10 2 -10 -4z"/>
<path d="M1490 940 c0 -5 5 -10 11 -10 5 0 7 5 4 10 -3 6 -8 10 -11 10 -2 0
-4 -4 -4 -10z"/>
<path d="M856 905 c-4 -11 -13 -32 -21 -47 -8 -16 -10 -28 -5 -28 12 0 42 70
36 84 -2 6 -7 2 -10 -9z"/>
<path d="M1487 905 c-4 -8 -1 -17 5 -21 7 -5 8 -2 3 6 -6 10 -4 12 8 7 11 -4
14 -2 10 9 -7 18 -19 18 -26 -1z"/>
<path d="M1460 880 c0 -5 5 -10 11 -10 5 0 7 5 4 10 -3 6 -8 10 -11 10 -2 0
-4 -4 -4 -10z"/>
<path d="M1044 823 c1 -7 4 -14 7 -15 2 -2 3 -1 2 1 -2 2 4 9 13 15 13 10 13
12 -4 12 -11 0 -19 -6 -18 -13z"/>
<path d="M1257 829 c7 -7 15 -10 18 -7 3 3 -2 9 -12 12 -14 6 -15 5 -6 -5z"/>
<path d="M1220 826 c0 -2 7 -7 16 -10 8 -3 12 -2 9 4 -6 10 -25 14 -25 6z"/>
<path d="M620 655 c0 -5 5 -17 10 -25 5 -8 10 -10 10 -5 0 6 -5 17 -10 25 -5
8 -10 11 -10 5z"/>
<path d="M1372 540 c0 -14 2 -19 5 -12 2 6 2 18 0 25 -3 6 -5 1 -5 -13z"/>
<path d="M1123 470 c1 -21 10 -18 13 5 1 8 -2 15 -6 15 -5 0 -8 -9 -7 -20z"/>
<path d="M1157 469 c7 -7 15 -10 18 -7 3 3 -2 9 -12 12 -14 6 -15 5 -6 -5z"/>
<path d="M1397 350 c3 -11 9 -20 15 -20 5 0 4 9 -2 20 -6 11 -12 20 -14 20 -2
0 -2 -9 1 -20z"/>
<path d="M615 260 c-17 -6 -17 -7 7 -13 15 -4 34 -14 42 -23 9 -8 16 -12 16
-7 -1 20 -46 50 -65 43z"/>
<path d="M675 250 c21 -24 26 -25 19 -6 -3 8 -13 17 -22 21 -13 5 -13 2 3 -15z"/>
<path d="M486 1791 c-4 -5 -2 -12 3 -15 5 -4 12 -2 15 3 4 5 2 12 -3 15 -5 4
-12 2 -15 -3z"/>
<path d="M162 1120 c0 -14 2 -19 5 -12 2 6 2 18 0 25 -3 6 -5 1 -5 -13z"/>
<path d="M1745 869 c-4 -6 -5 -12 -2 -15 2 -3 7 2 10 11 7 17 1 20 -8 4z"/>
<path d="M1761 806 c-9 -11 -9 -16 1 -22 7 -4 10 -4 6 1 -4 4 -3 14 3 22 6 7
9 13 6 13 -2 0 -10 -6 -16 -14z"/>
<path d="M327 799 c7 -7 15 -10 18 -7 3 3 -2 9 -12 12 -14 6 -15 5 -6 -5z"/>
<path d="M1793 775 c-13 -9 -23 -23 -23 -32 0 -12 -3 -13 -14 -3 -23 18 -61 8
-64 -17 -2 -15 -10 -23 -23 -23 -10 0 -19 -4 -19 -10 0 -5 5 -10 10 -10 6 0
10 -6 10 -14 0 -10 11 -11 53 -4 115 20 202 7 195 -30 -3 -13 -18 -18 -73 -22
-39 -3 -83 -2 -99 2 -16 4 -32 6 -34 3 -3 -3 9 -8 27 -11 26 -5 29 -9 19 -21
-6 -8 -20 -19 -30 -24 -16 -9 -18 -7 -12 15 6 24 4 26 -31 26 -25 0 -35 -4
-32 -12 2 -7 12 -12 21 -12 10 1 16 -6 16 -17 0 -27 25 -34 53 -16 23 15 24
14 36 -19 9 -24 18 -34 33 -34 54 0 188 94 188 131 0 11 -7 33 -15 48 -16 32
-101 111 -119 111 -6 0 -20 3 -31 6 -11 2 -30 -2 -42 -11z m86 -34 c43 -22 91
-80 91 -110 0 -11 -12 -32 -27 -46 -37 -35 -123 -79 -133 -68 -5 4 -11 24 -15
43 l-6 36 65 1 c46 1 64 -2 60 -9 -4 -7 -2 -8 4 -4 6 4 8 14 5 23 -5 12 -3 14
7 8 10 -6 12 -4 7 7 -3 9 -1 21 4 27 5 6 6 9 3 6 -4 -3 -12 -1 -18 4 -20 17
-96 39 -96 29 0 -6 -7 -5 -15 2 -8 7 -15 8 -15 3 0 -5 -6 -10 -12 -10 -7 0
-35 -3 -63 -7 -38 -5 -44 -4 -27 4 17 7 22 15 17 30 -8 25 5 25 38 0 l26 -20
7 22 c16 53 34 58 93 29z"/>
<path d="M1818 713 c7 -3 16 -2 19 1 4 3 -2 6 -13 5 -11 0 -14 -3 -6 -6z"/>
<path d="M1840 586 c0 -3 9 -10 20 -16 11 -6 20 -8 20 -6 0 3 -9 10 -20 16
-11 6 -20 8 -20 6z"/>
<path d="M1940 756 c0 -2 8 -10 18 -17 15 -13 16 -12 3 4 -13 16 -21 21 -21
13z"/>
<path d="M1810 645 c0 -7 39 -12 49 -5 7 4 -1 7 -18 8 -17 0 -31 -1 -31 -3z"/>
<path d="M1665 620 c-3 -5 -1 -10 4 -10 6 0 11 5 11 10 0 6 -2 10 -4 10 -3 0
-8 -4 -11 -10z"/>
<path d="M1890 456 c0 -2 7 -7 16 -10 8 -3 12 -2 9 4 -6 10 -25 14 -25 6z"/>
<path d="M420 195 c-2 -5 -2 -13 -1 -17 0 -5 -3 -8 -9 -8 -6 0 -6 -9 1 -24 27
-59 142 -76 524 -76 367 0 537 24 572 79 8 12 8 22 1 32 -8 11 -9 11 -5 -2 10
-32 -31 -54 -133 -69 -207 -31 -233 -33 -515 -27 -273 6 -387 17 -386 40 2 18
0 19 -14 7 -13 -11 -14 -10 -9 4 5 12 2 15 -10 10 -9 -3 -16 -2 -16 4 0 6 4
12 9 14 4 2 5 12 0 23 -4 11 -8 16 -9 10z"/>
<path d="M1232 163 c-19 -7 -34 -40 -17 -40 8 0 11 7 7 16 -4 13 -1 12 17 -3
17 -16 24 -17 34 -7 9 10 8 11 -6 5 -13 -4 -16 -2 -11 9 6 17 -5 26 -24 20z"/>
<path d="M715 130 c-3 -6 1 -7 9 -4 18 7 21 14 7 14 -6 0 -13 -4 -16 -10z"/>
<path d="M898 103 c12 -2 32 -2 45 0 12 2 2 4 -23 4 -25 0 -35 -2 -22 -4z"/>
<path d="M1190 100 c-8 -5 -10 -10 -5 -10 6 0 17 5 25 10 8 5 11 10 5 10 -5 0
-17 -5 -25 -10z"/>
<path d="M728 93 c7 -3 16 -2 19 1 4 3 -2 6 -13 5 -11 0 -14 -3 -6 -6z"/>
</g>
</svg>
